<svg width="1124" height="1124" viewBox="0 0 1124 1124" fill="none" xmlns="http://www.w3.org/2000/svg">
<rect width="1124" height="1124" fill="white"/>
<path fill-rule="evenodd" clip-rule="evenodd" d="M1108.62 561.811C1108.62 863.806 863.806 1108.62 561.811 1108.62C259.816 1108.62 15 863.806 15 561.811C15 259.816 259.816 15 561.811 15C863.806 15 1108.62 259.816 1108.62 561.811ZM907.496 558.667C907.496 747.848 754.134 901.21 564.953 901.21C375.772 901.21 222.411 747.848 222.411 558.667C222.411 369.486 375.772 216.125 564.953 216.125C754.134 216.125 907.496 369.486 907.496 558.667ZM561.811 712.653C645.12 712.653 712.655 645.118 712.655 561.809C712.655 478.5 645.12 410.964 561.811 410.964C478.502 410.964 410.966 478.5 410.966 561.809C410.966 645.118 478.502 712.653 561.811 712.653Z" fill="#9EE840"/>
</svg>
